<svg width="738" height="874" viewBox="0 0 738 874" fill="none" xmlns="http://www.w3.org/2000/svg">
<g filter="url(#filter0_f_11_40)">
<path d="M548.918 -134.647C709.782 -72.6898 876.188 -9.54909 1028.62 71.415C1026.83 75.1219 1024.97 78.6723 1023.07 81.9892C1012.43 100.614 988.948 104.589 969.913 109.95C936.034 119.492 903.748 130.697 873.168 148.492C853.174 160.125 839.908 171 847.47 194.338C856.186 221.241 856.43 250.192 855.028 278.221C852.415 330.463 840.43 382.382 824.795 432.134C811.784 473.534 778.888 612.049 716.712 609.977C678.655 608.709 635.432 582.539 599.055 573.703C534.203 557.95 468.766 553.666 402.288 552.795C371.267 552.389 316.742 568.754 299.243 534.91C240.76 421.795 266.708 272.023 293.953 153.026C309.407 85.5251 338.891 26.8329 378.353 -29.6036C406.137 -69.3391 436.321 -114.327 476.611 -142.708C497.887 -157.695 529.371 -142.176 548.918 -134.647Z" fill="#7D44C5" fill-opacity="0.41"/>
</g>
<defs>
<filter id="filter0_f_11_40" x="0" y="-413" width="1292.62" height="1287" filterUnits="userSpaceOnUse" color-interpolation-filters="sRGB">
<feFlood flood-opacity="0" result="BackgroundImageFix"/>
<feBlend mode="normal" in="SourceGraphic" in2="BackgroundImageFix" result="shape"/>
<feGaussianBlur stdDeviation="132" result="effect1_foregroundBlur_11_40"/>
</filter>
</defs>
</svg>
