<svg width="874" height="1287" viewBox="0 0 874 1287" fill="none" xmlns="http://www.w3.org/2000/svg">
<g filter="url(#filter0_f_11_41)">
<path d="M129.918 278.353C290.782 340.31 457.188 403.451 609.621 484.415C607.826 488.122 605.969 491.672 604.073 494.989C593.429 513.614 569.948 517.589 550.913 522.95C517.034 532.492 484.748 543.697 454.168 561.492C434.174 573.125 420.908 584 428.47 607.338C437.186 634.241 437.43 663.192 436.028 691.221C433.415 743.463 421.43 795.382 405.795 845.134C392.784 886.534 359.888 1025.05 297.712 1022.98C259.655 1021.71 216.432 995.539 180.055 986.703C115.203 970.95 49.7657 966.666 -16.7122 965.795C-47.7333 965.389 -102.258 981.754 -119.757 947.91C-178.24 834.795 -152.292 685.023 -125.047 566.026C-109.593 498.525 -80.1085 439.833 -40.6467 383.396C-12.8627 343.661 17.3212 298.673 57.6107 270.292C78.8868 255.305 110.371 270.824 129.918 278.353Z" fill="#7D44C5" fill-opacity="0.32"/>
</g>
<defs>
<filter id="filter0_f_11_41" x="-419" y="0" width="1292.62" height="1287" filterUnits="userSpaceOnUse" color-interpolation-filters="sRGB">
<feFlood flood-opacity="0" result="BackgroundImageFix"/>
<feBlend mode="normal" in="SourceGraphic" in2="BackgroundImageFix" result="shape"/>
<feGaussianBlur stdDeviation="132" result="effect1_foregroundBlur_11_41"/>
</filter>
</defs>
</svg>
